<?xml version="1.0" encoding="utf-8"?>
<!-- Generator: Adobe Illustrator 21.0.2, SVG Export Plug-In . SVG Version: 6.00 Build 0)  -->
<svg version="1.1" id="Calque_1" xmlns="http://www.w3.org/2000/svg" xmlns:xlink="http://www.w3.org/1999/xlink" x="0px" y="0px"
	 viewBox="0 0 22.5 22.5" style="enable-background:new 0 0 22.5 22.5;" xml:space="preserve">
<style type="text/css">
	.st0{fill:#FF6400;}
</style>
<path class="st0" d="M0.7,9.6c0,4.7,3.8,8.6,8.5,8.6c1.8,0,3.5-0.6,4.9-1.5c0.1,0.2,0.2,0.3,0.3,0.5l4.5,4.5
	c0.3,0.3,0.7,0.5,1.2,0.5c0.4,0,0.8-0.2,1.2-0.5c0.6-0.6,0.6-1.7,0-2.3l-4.5-4.5c-0.1-0.1-0.3-0.3-0.5-0.3c0.9-1.4,1.5-3,1.5-4.8
	c0-4.7-3.8-8.6-8.5-8.6S0.7,4.8,0.7,9.6z M2.3,9.6c0-3.8,3.1-6.9,6.8-6.9S16,5.8,16,9.6s-3.1,6.9-6.8,6.9S2.3,13.3,2.3,9.6z"/>
</svg>
